<svg width="110" height="91" viewBox="0 0 110 91" fill="none" xmlns="http://www.w3.org/2000/svg">
<path d="M71.9205 29.9524C74.2527 26.0784 79.8693 26.0784 82.2014 29.9524L99.6003 58.8547C102.007 62.8537 99.1275 67.9492 94.4599 67.9492H59.6621C54.9944 67.9492 52.1143 62.8537 54.5217 58.8547L71.9205 29.9524Z" fill="#D9D9D9"/>
<path d="M33.4436 11.5895C35.6431 7.12511 42.0086 7.12511 44.2081 11.5895L67.6758 59.2225C69.6402 63.2098 66.7384 67.8742 62.2935 67.8742H15.3583C10.9134 67.8742 8.01154 63.2098 9.97596 59.2225L33.4436 11.5895Z" fill="#498D9F"/>
<path d="M60.3983 35.5138L55.5599 32.0113C55.3328 31.8468 55.3014 31.651 55.4659 31.4239L55.9373 30.7727C56.1017 30.5455 56.2975 30.5142 56.5246 30.6786L60.9996 33.918C61.989 34.6343 62.7362 34.9251 63.2412 34.7907C63.7412 34.6526 64.1667 34.3413 64.5175 33.8567C64.9779 33.2206 65.1362 32.5928 64.9923 31.9733C64.8434 31.35 64.2945 30.6949 63.3455 30.0079L59.1885 26.9987C58.9614 26.8343 58.93 26.6385 59.0945 26.4113L59.5659 25.7602C59.7303 25.533 59.9261 25.5016 60.1532 25.6661L67.4222 30.9281C67.6493 31.0925 67.6807 31.2883 67.5162 31.5155L67.0558 32.1515C66.8914 32.3787 66.6956 32.41 66.4684 32.2456L65.8627 31.8071L65.8408 31.8374C65.9667 32.4286 65.981 32.9774 65.8836 33.4839C65.7862 33.9904 65.5402 34.5162 65.1455 35.0614C64.506 35.9448 63.7808 36.4045 62.97 36.4407C62.1541 36.4732 61.2968 36.1642 60.3983 35.5138ZM72.595 30.8761C72.4305 31.1033 72.2347 31.1346 72.0076 30.9702L61.7099 23.5157C61.4828 23.3513 61.4514 23.1555 61.6158 22.9283L62.0763 22.2923C62.2078 22.1105 62.3927 22.0943 62.6308 22.2436L63.2694 22.6367L63.2804 22.6216C63.1482 22.1027 63.1123 21.5998 63.1726 21.1126C63.2329 20.6254 63.4732 20.0916 63.8934 19.5111C64.6242 18.5015 65.5936 18.0339 66.8015 18.1082C68.0043 18.1789 69.1484 18.607 70.2337 19.3927C71.319 20.1783 72.0855 21.1333 72.5333 22.2575C72.9761 23.3781 72.8321 24.4432 72.1012 25.4528C71.681 26.0333 71.2489 26.4283 70.8049 26.6377C70.361 26.8472 69.8719 26.9701 69.3378 27.0066L69.3268 27.0217C69.4856 27.1212 69.6432 27.2276 69.7997 27.3409L72.9723 29.6376C73.1994 29.802 73.2308 29.9978 73.0663 30.225L72.595 30.8761ZM67.1798 25.4444C67.937 25.9925 68.6321 26.2226 69.2651 26.1346C69.8967 26.0379 70.4098 25.717 70.8045 25.1718C71.3599 24.4045 71.465 23.6536 71.1197 22.919C70.7782 22.1794 70.143 21.4734 69.2142 20.801C68.2853 20.1286 67.4163 19.7457 66.607 19.6522C65.8013 19.5536 65.1207 19.888 64.5653 20.6553C64.1706 21.2004 64.0285 21.7899 64.139 22.4238C64.248 23.0489 64.6811 23.6356 65.4383 24.1837L67.1798 25.4444Z" fill="#180806"/>
<path d="M19.1855 52.6818C19.1855 50.5007 19.7494 48.7932 20.8774 47.5593C22.0053 46.3192 23.5726 45.6992 25.5792 45.6992C26.7819 45.6992 27.7634 45.9079 28.5236 46.3254C29.2839 46.7367 29.8416 47.2228 30.1969 47.7837C30.415 48.1326 30.4118 48.385 30.1875 48.5408L29.4864 49.0269C29.2559 49.1889 29.0253 49.0923 28.7947 48.7371C28.6078 48.4567 28.2557 48.1233 27.7385 47.7369C27.2212 47.3506 26.5326 47.1574 25.6726 47.1574C24.1459 47.1574 23.0024 47.6434 22.2421 48.6156C21.4818 49.5815 21.1017 50.9369 21.1017 52.6818C21.1017 54.4266 21.4725 55.7851 22.2141 56.7573C22.9556 57.7232 24.1396 58.2062 25.7661 58.2062C26.5762 58.2062 27.2804 58.1096 27.8787 57.9164C28.4831 57.717 28.9069 57.4428 29.1499 57.0938V54.6167H26.3737C26.031 54.6167 25.8596 54.4765 25.8596 54.1961V53.5044C25.8596 53.2239 26.031 53.0837 26.3737 53.0837H30.4305C30.7733 53.0837 30.9447 53.2239 30.9447 53.5044V57.9164C30.1844 58.471 29.4241 58.901 28.6639 59.2063C27.9036 59.5117 26.9065 59.6644 25.6726 59.6644C23.6162 59.6644 22.0209 59.0474 20.8867 57.8136C19.7525 56.5735 19.1855 54.8629 19.1855 52.6818ZM32.8609 54.4765C32.8609 52.931 33.2473 51.7003 34.02 50.7842C34.7927 49.8682 35.8988 49.4101 37.3384 49.4101C38.5349 49.4101 39.5257 49.8308 40.3109 50.672C41.1023 51.5071 41.498 52.8438 41.498 54.6821C41.498 54.9626 41.3703 55.1028 41.1148 55.1028H34.5995C34.7055 56.3055 35.0295 57.1437 35.5717 57.6173C36.1138 58.0846 36.7277 58.3183 37.4131 58.3183C38.136 58.3183 38.6906 58.1968 39.077 57.9538C39.4634 57.7107 39.7469 57.4708 39.9276 57.234C40.127 56.9723 40.3202 56.9224 40.5072 57.0845L41.0587 57.5612C41.202 57.6858 41.202 57.8572 41.0587 58.0753C40.9403 58.256 40.6007 58.5458 40.0398 58.9446C39.4852 59.3434 38.6096 59.5429 37.4131 59.5429C35.8552 59.5429 34.7055 59.0848 33.9639 58.1688C33.2286 57.2527 32.8609 56.022 32.8609 54.4765ZM34.5621 53.8876H39.8435C39.8186 53.0152 39.5942 52.2518 39.1705 51.5975C38.7467 50.9369 38.1236 50.6066 37.301 50.6066C36.5781 50.6066 35.9643 50.8497 35.4595 51.3357C34.9547 51.8156 34.6556 52.6662 34.5621 53.8876ZM43.1245 56.7666C43.1245 55.6574 43.6417 54.8442 44.6762 54.3269C45.7169 53.8097 47.2686 53.5075 49.3313 53.4202V52.7846C49.3313 52.1988 49.1973 51.694 48.9293 51.2703C48.6676 50.8403 48.1441 50.6253 47.3589 50.6253C46.8604 50.6253 46.4616 50.6752 46.1624 50.7749C45.8633 50.8683 45.5891 50.9961 45.3399 51.1581C45.0968 51.3139 44.8631 51.5164 44.6388 51.7657C44.4705 51.9527 44.3116 51.962 44.1621 51.7938L43.676 51.2329C43.5389 51.0771 43.5856 50.8902 43.8162 50.672C44.1465 50.3605 44.4674 50.1268 44.779 49.971C45.0906 49.8152 45.477 49.6843 45.9381 49.5784C46.4055 49.4662 46.8791 49.4101 47.3589 49.4101C48.6613 49.4101 49.5899 49.7466 50.1445 50.4197C50.6991 51.0865 50.9764 52.0025 50.9764 53.1678V58.9633C50.9764 59.2437 50.8362 59.384 50.5558 59.384H49.7145C49.4715 59.384 49.3499 59.2437 49.3499 58.9633V58.5053H49.3313C48.8389 58.8916 48.356 59.1627 47.8824 59.3185C47.415 59.4681 46.8915 59.5429 46.312 59.5429C45.29 59.5429 44.5017 59.2998 43.9471 58.8138C43.3987 58.3214 43.1245 57.6391 43.1245 56.7666ZM44.8257 56.804C44.8257 57.1904 44.9068 57.502 45.0688 57.7388C45.2308 57.9694 45.4551 58.1189 45.7418 58.1875C46.0285 58.2498 46.3276 58.2809 46.6392 58.2809C47.119 58.2809 47.5739 58.2342 48.0039 58.1407C48.4339 58.0473 48.8763 57.8011 49.3313 57.4023V54.6448C48.0725 54.7382 47.1751 54.8535 46.6392 54.9906C46.1032 55.1215 45.667 55.352 45.3305 55.6823C44.994 56.0064 44.8257 56.3803 44.8257 56.804ZM54.0611 59.384C53.7807 59.384 53.6405 59.2437 53.6405 58.9633V49.9897C53.6405 49.7093 53.7807 49.569 54.0611 49.569H54.8463C55.1267 49.569 55.2669 49.7093 55.2669 49.9897V51.1114H55.3043C55.6034 50.5505 55.9555 50.1268 56.3606 49.8401C56.7657 49.5535 57.2704 49.4101 57.8749 49.4101C58.2737 49.4101 58.5542 49.4444 58.7162 49.513C58.8595 49.569 58.9125 49.6625 58.8751 49.7934L58.6601 50.5599C58.6289 50.672 58.5479 50.7157 58.4171 50.6907C58.1989 50.6471 57.9933 50.6253 57.8001 50.6253C57.071 50.6253 56.4697 50.9556 55.996 51.6161C55.5224 52.2705 55.2856 53.1647 55.2856 54.2989V58.9633C55.2856 59.2437 55.1454 59.384 54.865 59.384H54.0611Z" fill="white"/>
</svg>
