<svg width="110" height="90" viewBox="0 0 110 90" fill="none" xmlns="http://www.w3.org/2000/svg">
<path d="M71.9203 29.2871C74.2525 25.4131 79.8691 25.4131 82.2012 29.2871L99.6001 58.1894C102.007 62.1884 99.1273 67.2839 94.4597 67.2839H59.6619C54.9942 67.2839 52.1141 62.1884 54.5215 58.1894L71.9203 29.2871Z" fill="#D9D9D9"/>
<path d="M33.4434 10.9245C35.6429 6.4601 42.0084 6.4601 44.2079 10.9245L67.6756 58.5575C69.64 62.5448 66.7382 67.2092 62.2933 67.2092H15.3581C10.9132 67.2092 8.01138 62.5448 9.9758 58.5575L33.4434 10.9245Z" fill="#4C9FAD"/>
<path d="M60.3984 34.8486L55.56 31.3461C55.3329 31.1816 55.3015 30.9858 55.466 30.7587L55.9374 30.1075C56.1018 29.8803 56.2976 29.849 56.5247 30.0134L60.9997 33.2528C61.9891 33.9691 62.7363 34.2599 63.2413 34.1255C63.7413 33.9874 64.1668 33.6761 64.5176 33.1915C64.978 32.5554 65.1363 31.9276 64.9924 31.3081C64.8435 30.6848 64.2946 30.0297 63.3456 29.3427L59.1886 26.3335C58.9615 26.1691 58.9301 25.9733 59.0946 25.7461L59.566 25.095C59.7304 24.8678 59.9262 24.8364 60.1533 25.0009L67.4223 30.2629C67.6494 30.4273 67.6808 30.6231 67.5163 30.8503L67.0559 31.4863C66.8915 31.7135 66.6957 31.7448 66.4685 31.5804L65.8628 31.1419L65.8409 31.1722C65.9668 31.7634 65.9811 32.3122 65.8837 32.8187C65.7863 33.3252 65.5403 33.851 65.1456 34.3962C64.5061 35.2796 63.7809 35.7393 62.9701 35.7755C62.1542 35.808 61.2969 35.499 60.3984 34.8486ZM72.5951 30.2109C72.4306 30.4381 72.2348 30.4694 72.0077 30.305L61.71 22.8505C61.4829 22.6861 61.4515 22.4903 61.6159 22.2631L62.0764 21.6271C62.2079 21.4453 62.3928 21.4291 62.6309 21.5784L63.2695 21.9715L63.2805 21.9564C63.1483 21.4375 63.1124 20.9346 63.1727 20.4474C63.233 19.9602 63.4733 19.4264 63.8935 18.8459C64.6243 17.8363 65.5937 17.3687 66.8016 17.443C68.0044 17.5137 69.1485 17.9418 70.2338 18.7275C71.3191 19.5131 72.0856 20.4681 72.5334 21.5923C72.9762 22.7129 72.8322 23.778 72.1013 24.7876C71.6811 25.3681 71.249 25.7631 70.805 25.9725C70.3611 26.182 69.872 26.3049 69.3379 26.3414L69.3269 26.3565C69.4857 26.456 69.6433 26.5624 69.7998 26.6757L72.9724 28.9724C73.1995 29.1368 73.2309 29.3326 73.0664 29.5598L72.5951 30.2109ZM67.1799 24.7792C67.9371 25.3273 68.6322 25.5574 69.2652 25.4694C69.8968 25.3727 70.4099 25.0518 70.8046 24.5066C71.36 23.7393 71.4651 22.9884 71.1198 22.2538C70.7783 21.5142 70.1431 20.8082 69.2143 20.1358C68.2854 19.4634 67.4164 19.0805 66.6071 18.987C65.8014 18.8884 65.1208 19.2228 64.5654 19.9901C64.1707 20.5352 64.0286 21.1247 64.1391 21.7586C64.2481 22.3837 64.6812 22.9704 65.4384 23.5185L67.1799 24.7792Z" fill="#180806"/>
<path d="M19.1857 52.0166C19.1857 49.8355 19.7496 48.128 20.8776 46.8941C22.0055 45.654 23.5728 45.034 25.5794 45.034C26.7821 45.034 27.7636 45.2427 28.5238 45.6602C29.2841 46.0715 29.8418 46.5576 30.1971 47.1185C30.4152 47.4674 30.412 47.7198 30.1877 47.8756L29.4866 48.3617C29.2561 48.5237 29.0255 48.4271 28.7949 48.0719C28.608 47.7915 28.2559 47.4581 27.7387 47.0717C27.2214 46.6854 26.5328 46.4922 25.6728 46.4922C24.1461 46.4922 23.0026 46.9782 22.2423 47.9504C21.482 48.9163 21.1019 50.2717 21.1019 52.0166C21.1019 53.7614 21.4727 55.1199 22.2143 56.0921C22.9558 57.058 24.1398 57.541 25.7663 57.541C26.5764 57.541 27.2806 57.4444 27.8789 57.2512C28.4833 57.0518 28.9071 56.7776 29.1501 56.4286V53.9515H26.3739C26.0312 53.9515 25.8598 53.8113 25.8598 53.5309V52.8392C25.8598 52.5587 26.0312 52.4185 26.3739 52.4185H30.4307C30.7735 52.4185 30.9449 52.5587 30.9449 52.8392V57.2512C30.1846 57.8058 29.4243 58.2358 28.6641 58.5411C27.9038 58.8465 26.9067 58.9992 25.6728 58.9992C23.6164 58.9992 22.0211 58.3822 20.8869 57.1484C19.7527 55.9083 19.1857 54.1977 19.1857 52.0166ZM32.8611 53.8113C32.8611 52.2658 33.2475 51.0351 34.0202 50.119C34.7929 49.203 35.899 48.7449 37.3386 48.7449C38.5351 48.7449 39.5259 49.1656 40.3111 50.0068C41.1025 50.8419 41.4982 52.1786 41.4982 54.0169C41.4982 54.2974 41.3705 54.4376 41.115 54.4376H34.5997C34.7057 55.6403 35.0297 56.4785 35.5719 56.9521C36.114 57.4194 36.7279 57.6531 37.4133 57.6531C38.1362 57.6531 38.6908 57.5316 39.0772 57.2886C39.4636 57.0455 39.7471 56.8056 39.9278 56.5688C40.1272 56.3071 40.3204 56.2572 40.5074 56.4193L41.0589 56.896C41.2022 57.0206 41.2022 57.192 41.0589 57.4101C40.9405 57.5908 40.6009 57.8806 40.04 58.2794C39.4854 58.6782 38.6098 58.8777 37.4133 58.8777C35.8554 58.8777 34.7057 58.4196 33.9641 57.5036C33.2288 56.5875 32.8611 55.3568 32.8611 53.8113ZM34.5623 53.2224H39.8437C39.8188 52.35 39.5944 51.5866 39.1707 50.9323C38.7469 50.2717 38.1238 49.9414 37.3012 49.9414C36.5783 49.9414 35.9645 50.1845 35.4597 50.6705C34.9549 51.1504 34.6558 52.001 34.5623 53.2224ZM43.1247 56.1014C43.1247 54.9922 43.6419 54.179 44.6764 53.6617C45.7171 53.1445 47.2688 52.8423 49.3315 52.755V52.1194C49.3315 51.5336 49.1975 51.0288 48.9295 50.6051C48.6678 50.1751 48.1443 49.9601 47.3591 49.9601C46.8606 49.9601 46.4618 50.01 46.1626 50.1097C45.8635 50.2031 45.5893 50.3309 45.3401 50.4929C45.097 50.6487 44.8633 50.8512 44.639 51.1005C44.4707 51.2875 44.3118 51.2968 44.1623 51.1286L43.6762 50.5677C43.5391 50.4119 43.5858 50.225 43.8164 50.0068C44.1467 49.6953 44.4676 49.4616 44.7792 49.3058C45.0908 49.15 45.4772 49.0191 45.9383 48.9132C46.4057 48.801 46.8793 48.7449 47.3591 48.7449C48.6615 48.7449 49.5901 49.0814 50.1447 49.7545C50.6993 50.4213 50.9766 51.3373 50.9766 52.5026V58.2981C50.9766 58.5785 50.8364 58.7188 50.556 58.7188H49.7147C49.4717 58.7188 49.3501 58.5785 49.3501 58.2981V57.8401H49.3315C48.8391 58.2264 48.3562 58.4975 47.8826 58.6533C47.4152 58.8029 46.8917 58.8777 46.3122 58.8777C45.2902 58.8777 44.5019 58.6346 43.9473 58.1486C43.3989 57.6562 43.1247 56.9739 43.1247 56.1014ZM44.8259 56.1388C44.8259 56.5252 44.907 56.8368 45.069 57.0736C45.231 57.3042 45.4553 57.4537 45.742 57.5223C46.0287 57.5846 46.3278 57.6157 46.6394 57.6157C47.1192 57.6157 47.5741 57.569 48.0041 57.4755C48.4341 57.3821 48.8765 57.1359 49.3315 56.7371V53.9796C48.0727 54.073 47.1753 54.1883 46.6394 54.3254C46.1034 54.4563 45.6672 54.6868 45.3307 55.0171C44.9942 55.3412 44.8259 55.7151 44.8259 56.1388ZM54.0613 58.7188C53.7809 58.7188 53.6407 58.5785 53.6407 58.2981V49.3245C53.6407 49.0441 53.7809 48.9038 54.0613 48.9038H54.8465C55.1269 48.9038 55.2671 49.0441 55.2671 49.3245V50.4462H55.3045C55.6036 49.8853 55.9557 49.4616 56.3608 49.1749C56.7659 48.8883 57.2706 48.7449 57.8751 48.7449C58.2739 48.7449 58.5544 48.7792 58.7164 48.8478C58.8597 48.9038 58.9127 48.9973 58.8753 49.1282L58.6603 49.8947C58.6291 50.0068 58.5481 50.0505 58.4173 50.0255C58.1991 49.9819 57.9935 49.9601 57.8003 49.9601C57.0712 49.9601 56.4699 50.2904 55.9962 50.9509C55.5226 51.6053 55.2858 52.4995 55.2858 53.6337V58.2981C55.2858 58.5785 55.1456 58.7188 54.8652 58.7188H54.0613Z" fill="#180806"/>
</svg>
